<svg width="19" height="18" viewBox="0 0 19 18" fill="none" xmlns="http://www.w3.org/2000/svg">
  <path d="M16.5 5V2H2.5V5H6.5C6.5 5.79565 6.81607 6.55871 7.37868 7.12132C7.94129 7.68393 8.70435 8 9.5 8C10.2956 8 11.0587 7.68393 11.6213 7.12132C12.1839 6.55871 12.5 5.79565 12.5 5H16.5ZM16.5 0C17.0304 0 17.5391 0.210714 17.9142 0.585786C18.2893 0.960859 18.5 1.46957 18.5 2V9C18.5 9.53043 18.2893 10.0391 17.9142 10.4142C17.5391 10.7893 17.0304 11 16.5 11H2.5C1.96957 11 1.46086 10.7893 1.08579 10.4142C0.710714 10.0391 0.5 9.53043 0.5 9V2C0.5 1.46957 0.710714 0.960859 1.08579 0.585786C1.46086 0.210714 1.96957 0 2.5 0H16.5ZM0.5 12H6.5C6.5 12.7956 6.81607 13.5587 7.37868 14.1213C7.94129 14.6839 8.70435 15 9.5 15C10.2956 15 11.0587 14.6839 11.6213 14.1213C12.1839 13.5587 12.5 12.7956 12.5 12H18.5V16C18.5 16.5304 18.2893 17.0391 17.9142 17.4142C17.5391 17.7893 17.0304 18 16.5 18H2.5C1.96957 18 1.46086 17.7893 1.08579 17.4142C0.710714 17.0391 0.5 16.5304 0.5 16V12Z" fill="white"/>
</svg>
