<svg width="23" height="24" viewBox="0 0 23 24" fill="none" xmlns="http://www.w3.org/2000/svg">
  <path d="M19.5399 8.70994V3.99994H14.8399L11.4999 0.689941L8.20994 3.99994H3.49994V8.70994L0.189941 11.9999L3.49994 15.3399V20.0399H8.20994L11.4999 23.3499L14.8399 20.0399H19.5399V15.3399L22.8499 11.9999L19.5399 8.70994ZM8.32994 7.04994C9.30994 7.04994 10.0999 7.83994 10.0999 8.82994C10.0999 9.29937 9.91346 9.74958 9.58152 10.0815C9.24958 10.4135 8.79937 10.5999 8.32994 10.5999C7.33994 10.5999 6.54994 9.80994 6.54994 8.82994C6.54994 7.83994 7.33994 7.04994 8.32994 7.04994ZM14.7199 16.9999C13.7399 16.9999 12.9499 16.1999 12.9499 15.2199C12.9499 14.7505 13.1364 14.3003 13.4684 13.9684C13.8003 13.6364 14.2505 13.4499 14.7199 13.4499C15.6999 13.4499 16.4999 14.2399 16.4999 15.2199C16.4999 15.692 16.3124 16.1448 15.9786 16.4786C15.6448 16.8124 15.192 16.9999 14.7199 16.9999ZM7.99994 17.0299L6.49994 15.5299L15.0299 6.99994L16.5299 8.49994L7.99994 17.0299Z" fill="white"/>
</svg>
