<svg width="25" height="24" viewBox="0 0 25 24" fill="none" xmlns="http://www.w3.org/2000/svg">
  <path fill-rule="evenodd" clip-rule="evenodd" d="M12.5 24C19.1274 24 24.5 18.6274 24.5 12C24.5 5.37258 19.1274 0 12.5 0C5.87258 0 0.5 5.37258 0.5 12C0.5 18.6274 5.87258 24 12.5 24ZM9.5 15H7.5C7.5 16.79 8.97 18.31 11 18.82V21H14V18.82C16.03 18.31 17.5 16.79 17.5 15C17.5 12.22 14.86 11.56 12.74 11.03C10.54 10.5 9.5 10.1 9.5 9C9.5 7.92 10.87 7 12.5 7C14.13 7 15.5 7.92 15.5 9H17.5C17.5 7.21 16.03 5.69 14 5.18V3H11V5.18C8.97 5.69 7.5 7.21 7.5 9C7.5 11.78 10.14 12.44 12.26 12.97C14.46 13.5 15.5 13.9 15.5 15C15.5 16.08 14.13 17 12.5 17C10.87 17 9.5 16.08 9.5 15Z" fill="white"/>
</svg>
