<svg width="21" height="20" viewBox="0 0 21 20" fill="none" xmlns="http://www.w3.org/2000/svg">
  <path d="M4 5C3.60218 5 3.22064 4.84196 2.93934 4.56066C2.65804 4.27936 2.5 3.89782 2.5 3.5C2.5 3.10218 2.65804 2.72064 2.93934 2.43934C3.22064 2.15804 3.60218 2 4 2C4.39782 2 4.77936 2.15804 5.06066 2.43934C5.34196 2.72064 5.5 3.10218 5.5 3.5C5.5 3.89782 5.34196 4.27936 5.06066 4.56066C4.77936 4.84196 4.39782 5 4 5M19.91 9.58L10.91 0.58C10.55 0.22 10.05 0 9.5 0H2.5C1.39 0 0.5 0.89 0.5 2V9C0.5 9.55 0.72 10.05 1.09 10.41L10.08 19.41C10.45 19.77 10.95 20 11.5 20C12.05 20 12.55 19.77 12.91 19.41L19.91 12.41C20.28 12.05 20.5 11.55 20.5 11C20.5 10.44 20.27 9.94 19.91 9.58Z" fill="white"/>
</svg>
