<svg width="44" height="31" viewBox="0 0 44 31" fill="none" xmlns="http://www.w3.org/2000/svg">
<path d="M22.6406 30.6261L13.8474 30.4634C11.0003 30.4067 8.14623 30.5199 5.35502 29.9325C1.10894 29.055 0.808129 24.752 0.493366 21.1427C0.0596545 16.0684 0.227557 10.9021 1.04603 5.87018C1.50808 3.04675 3.32645 1.36199 6.13849 1.17866C15.6312 0.513311 25.187 0.592161 34.6587 0.902569C35.659 0.931025 36.6662 1.08655 37.6526 1.26359C42.5215 2.12704 42.6403 7.0032 42.9559 11.108C43.2706 15.2552 43.1377 19.4236 42.5361 23.5426C42.0535 26.9529 41.13 29.8128 37.2328 30.0889C32.3499 30.4499 27.5791 30.7406 22.6824 30.6481C22.6826 30.6261 22.6545 30.6261 22.6406 30.6261ZM17.471 21.992C21.1507 19.8546 24.7602 17.7528 28.4188 15.6297C24.7323 13.4922 21.1297 11.3904 17.471 9.26728V21.992Z" fill="#1C1C1C"/>
</svg>
