<svg width="44" height="35" viewBox="0 0 44 35" fill="none" xmlns="http://www.w3.org/2000/svg">
<path d="M42.5726 0.594549C40.826 1.4196 37.8537 2.96684 36.36 3.26257C36.3022 3.27758 36.255 3.29686 36.1993 3.31186C34.457 1.59318 32.0697 0.528116 29.4274 0.528116C24.1021 0.528116 19.784 4.84625 19.784 10.1716C19.784 10.4523 19.7604 10.9688 19.784 11.2431C12.8878 11.2431 7.85178 7.64499 4.08226 3.02042C3.57866 2.39895 3.04291 2.72254 2.93147 3.164C2.68074 4.16263 2.59502 5.83202 2.59502 7.02353C2.59502 10.0259 4.9416 12.9746 8.5954 14.8026C7.9225 14.9762 7.18103 15.1005 6.40955 15.1005C5.50092 15.1005 4.45514 14.8626 3.54008 14.3826C3.20149 14.2047 2.47073 14.254 2.68717 15.1198C3.55508 18.5893 7.51533 21.0258 11.0534 21.7352C10.2498 22.2088 8.5354 22.1123 7.74678 22.1123C7.45533 22.1123 6.44169 22.0438 5.78594 21.9623C5.18804 21.8895 4.2687 22.0438 5.03803 23.2095C6.69028 25.7104 10.4277 27.2812 13.6443 27.3412C10.6827 29.6642 5.83951 30.5129 1.19993 30.5129C0.261304 30.4914 0.30845 31.5608 1.06493 31.9572C4.48729 33.7531 10.0934 34.816 14.0986 34.816C30.021 34.816 39.0709 22.6802 39.0709 11.2409C39.0709 11.0566 39.0666 10.6709 39.0602 10.283C39.0602 10.2444 39.0709 10.208 39.0709 10.1694C39.0709 10.1116 39.0538 10.0559 39.0538 9.998C39.0473 9.70655 39.0409 9.43439 39.0345 9.29296C40.2967 8.38218 42.2297 6.80065 43.2069 5.58986C43.539 5.17841 43.2712 4.67909 42.819 4.83553C41.6554 5.24056 39.6431 6.02489 38.383 6.1749C40.9053 4.50551 42.1525 3.05256 43.224 1.43889C43.5905 0.888139 43.1319 0.328818 42.5726 0.594549Z" fill="#1C1C1C"/>
</svg>
