<svg width="40" height="39" viewBox="0 0 40 39" fill="none" xmlns="http://www.w3.org/2000/svg">
<path fill-rule="evenodd" clip-rule="evenodd" d="M0.786133 19.6722C0.786133 11.9678 0.786133 8.11565 2.62202 5.34104C3.44183 4.10204 4.50292 3.04095 5.74192 2.22114C8.51653 0.385254 12.3687 0.385254 20.0731 0.385254C27.7774 0.385254 31.6296 0.385254 34.4042 2.22114C35.6432 3.04095 36.7043 4.10204 37.5241 5.34104C39.36 8.11565 39.36 11.9678 39.36 19.6722C39.36 27.3765 39.36 31.2287 37.5241 34.0033C36.7043 35.2423 35.6432 36.3034 34.4042 37.1232C31.6296 38.9591 27.7774 38.9591 20.0731 38.9591C12.3687 38.9591 8.51653 38.9591 5.74192 37.1232C4.50292 36.3034 3.44183 35.2423 2.62202 34.0033C0.786133 31.2287 0.786133 27.3765 0.786133 19.6722ZM30.0579 19.6728C30.0579 25.1874 25.5874 29.6579 20.0728 29.6579C14.5582 29.6579 10.0878 25.1874 10.0878 19.6728C10.0878 14.1582 14.5582 9.6877 20.0728 9.6877C25.5874 9.6877 30.0579 14.1582 30.0579 19.6728ZM20.0728 26.2796C23.7217 26.2796 26.6797 23.3216 26.6797 19.6728C26.6797 16.0239 23.7217 13.0659 20.0728 13.0659C16.424 13.0659 13.466 16.0239 13.466 19.6728C13.466 23.3216 16.424 26.2796 20.0728 26.2796ZM30.4522 11.5325C31.7479 11.5325 32.7984 10.482 32.7984 9.18626C32.7984 7.89049 31.7479 6.84006 30.4522 6.84006C29.1564 6.84006 28.106 7.89049 28.106 9.18626C28.106 10.482 29.1564 11.5325 30.4522 11.5325Z" fill="#1C1C1C"/>
</svg>
