<svg width="20" height="19" viewBox="0 0 20 19" fill="none" xmlns="http://www.w3.org/2000/svg">
<path d="M14.5 0.497009C12.76 0.497009 11.09 1.30701 10 2.58701C8.91 1.30701 7.24 0.497009 5.5 0.497009C2.42 0.497009 0 2.91701 0 5.99701C0 9.77701 3.4 12.857 8.55 17.537L10 18.847L11.45 17.527C16.6 12.857 20 9.77701 20 5.99701C20 2.91701 17.58 0.497009 14.5 0.497009ZM10.1 16.047L10 16.147L9.9 16.047C5.14 11.737 2 8.88701 2 5.99701C2 3.99701 3.5 2.49701 5.5 2.49701C7.04 2.49701 8.54 3.48701 9.07 4.85701H10.94C11.46 3.48701 12.96 2.49701 14.5 2.49701C16.5 2.49701 18 3.99701 18 5.99701C18 8.88701 14.86 11.737 10.1 16.047Z" fill="#1C1C1C"/>
</svg>
