<svg width="18" height="19" viewBox="0 0 18 19" fill="none" xmlns="http://www.w3.org/2000/svg">
<path d="M12.755 11.927H11.965L11.685 11.657C12.665 10.517 13.255 9.037 13.255 7.427C13.255 3.837 10.345 0.927002 6.755 0.927002C3.165 0.927002 0.255005 3.837 0.255005 7.427C0.255005 11.017 3.165 13.927 6.755 13.927C8.365 13.927 9.845 13.337 10.985 12.357L11.255 12.637V13.427L16.255 18.417L17.745 16.927L12.755 11.927ZM6.755 11.927C4.26501 11.927 2.255 9.917 2.255 7.427C2.255 4.937 4.26501 2.927 6.755 2.927C9.245 2.927 11.255 4.937 11.255 7.427C11.255 9.917 9.245 11.927 6.755 11.927Z" fill="#1C1C1C"/>
</svg>
