<svg width="16" height="17" viewBox="0 0 16 17" fill="none" xmlns="http://www.w3.org/2000/svg">
<path d="M8 2.672C9.1 2.672 10 3.572 10 4.672C10 5.772 9.1 6.672 8 6.672C6.9 6.672 6 5.772 6 4.672C6 3.572 6.9 2.672 8 2.672ZM8 12.672C10.7 12.672 13.8 13.962 14 14.672H2C2.23 13.952 5.31 12.672 8 12.672ZM8 0.671997C5.79 0.671997 4 2.462 4 4.672C4 6.882 5.79 8.672 8 8.672C10.21 8.672 12 6.882 12 4.672C12 2.462 10.21 0.671997 8 0.671997ZM8 10.672C5.33 10.672 0 12.012 0 14.672V16.672H16V14.672C16 12.012 10.67 10.672 8 10.672Z" fill="#1C1C1C"/>
</svg>
