<svg width="18" height="22" viewBox="0 0 18 22" fill="none" xmlns="http://www.w3.org/2000/svg">
<path d="M16 5.172H14C14 2.412 11.76 0.171997 9 0.171997C6.24 0.171997 4 2.412 4 5.172H2C0.9 5.172 0 6.072 0 7.172V19.172C0 20.272 0.9 21.172 2 21.172H16C17.1 21.172 18 20.272 18 19.172V7.172C18 6.072 17.1 5.172 16 5.172ZM9 2.172C10.66 2.172 12 3.512 12 5.172H6C6 3.512 7.34 2.172 9 2.172ZM16 19.172H2V7.172H16V19.172ZM9 11.172C7.34 11.172 6 9.832 6 8.172H4C4 10.932 6.24 13.172 9 13.172C11.76 13.172 14 10.932 14 8.172H12C12 9.832 10.66 11.172 9 11.172Z" fill="#1C1C1C"/>
</svg>
